HIERARCHY
ROOT Hips
{
	OFFSET -3.958830 18.904000 13.208200
	CHANNELS 6 Xposition Yposition Zposition Zrotation Yrotation Xrotation 
	JOINT LHipJoint
	{
		OFFSET 0.000000 0.000000 0.000000
		CHANNELS 3 Zrotation Yrotation Xrotation
		JOINT LeftUpLeg
		{
			OFFSET 1.800000 -1.400000 0.085000
			CHANNELS 3 Zrotation Yrotation Xrotation
			JOINT LeftLeg
			{
				OFFSET 2.215000 -6.000000 0.000000
				CHANNELS 3 Zrotation Yrotation Xrotation
				JOINT LeftFoot
				{
					OFFSET 2.500000 -6.900000 0.000000
					CHANNELS 3 Zrotation Yrotation Xrotation
					JOINT LeftToeBase
					{
						OFFSET 0.200000 -0.500000 1.950000
						CHANNELS 3 Zrotation Yrotation Xrotation
						End Site
						{
							OFFSET 0.000000 0.000000 0.000000
						}
					}
				}
			}
		}
	}
	JOINT RHipJoint
	{
		OFFSET 0.000000 0.000000 0.000000
		CHANNELS 3 Zrotation Yrotation Xrotation
		JOINT RightUpLeg
		{
			OFFSET -1.800000 -1.400000 0.085000
			CHANNELS 3 Zrotation Yrotation Xrotation
			JOINT RightLeg
			{
				OFFSET -2.215000 -6.000000 0.000000
				CHANNELS 3 Zrotation Yrotation Xrotation
				JOINT RightFoot
				{
					OFFSET -2.500000 -6.900000 0.000000
					CHANNELS 3 Zrotation Yrotation Xrotation
					JOINT RightToeBase
					{
						OFFSET -0.200000 -0.500000 1.950000
						CHANNELS 3 Zrotation Yrotation Xrotation
						End Site
						{
							OFFSET 0.000000 0.000000 0.000000
						}
					}
				}
			}
		}
	}
	JOINT LowerBack
	{
		OFFSET 0.000000 0.000000 0.000000
		CHANNELS 3 Zrotation Yrotation Xrotation
		JOINT Spine
		{
			OFFSET -0.087000 1.940000 -0.288900
			CHANNELS 3 Zrotation Yrotation Xrotation
			JOINT Spine1
			{
				OFFSET 0.000000 1.950000 0.060000
				CHANNELS 3 Zrotation Yrotation Xrotation
				JOINT Neck
				{
					OFFSET 0.000000 0.000000 0.000000
					CHANNELS 3 Zrotation Yrotation Xrotation
					JOINT Neck1
					{
						OFFSET 0.000000 1.600000 0.340000
						CHANNELS 3 Zrotation Yrotation Xrotation
						JOINT Head
						{
							OFFSET 0.000000 1.667000 -0.240000
							CHANNELS 3 Zrotation Yrotation Xrotation
							End Site
							{
								OFFSET 0.000000 0.000000 0.000000
							}
						}
					}
				}
				JOINT LeftShoulder
				{
					OFFSET 0.000000 0.000000 0.000000
					CHANNELS 3 Zrotation Yrotation Xrotation
					JOINT LeftArm
					{
						OFFSET 2.700000 1.550000 -0.730000
						CHANNELS 3 Zrotation Yrotation Xrotation
						JOINT LeftForeArm
						{
							OFFSET 5.450000 0.000000 0.000000
							CHANNELS 3 Zrotation Yrotation Xrotation
							JOINT LeftHand
							{
								OFFSET 3.450000 0.000000 0.000000
								CHANNELS 3 Zrotation Yrotation Xrotation
								JOINT LeftHandIndex1
								{
									OFFSET 0.750000 0.000000 0.000000
									CHANNELS 3 Zrotation Yrotation Xrotation
									End Site
									{
										OFFSET 0.000000 0.000000 0.000000
									}
								}
							}
						}
					}
				}
				JOINT RightShoulder
				{
					OFFSET 0.000000 0.000000 0.000000
					CHANNELS 3 Zrotation Yrotation Xrotation
					JOINT RightArm
					{
						OFFSET -2.700000 1.550000 -0.730000
						CHANNELS 3 Zrotation Yrotation Xrotation
						JOINT RightForeArm
						{
							OFFSET -5.450000 0.000000 0.000000
							CHANNELS 3 Zrotation Yrotation Xrotation
							JOINT RightHand
							{
								OFFSET -3.450000 0.000000 0.000000
								CHANNELS 3 Zrotation Yrotation Xrotation
								JOINT RightHandIndex1
								{
									OFFSET -0.750000 0.000000 0.000000
									CHANNELS 3 Zrotation Yrotation Xrotation
									End Site
									{
										OFFSET 0.000000 0.000000 0.000000
									}
								}
							}
						}
					}
				}
			}
		}
	}
}
MOTION
Frames: 14
Frame Time: 0.016667
-0.363470 16.703830 -1.820650 -4.821375 21.093387 -2.969959 -15.118824 12.280814 3.109831 16.056839 -0.768394 -28.097216 -5.998658 10.770430 31.617215 -0.569663 7.479535 2.237388 0.066760 -0.535400 -0.150110 18.350883 -11.513974 2.379148 -13.690822 3.829033 -16.110235 10.948099 -10.529955 32.572395 -0.157889 -6.602785 2.415518 0.070230 1.115530 0.246180 -4.206128 1.000925 -7.306601 7.689231 6.216660 7.895063 -2.500051 7.662015 11.855490 1.916267 -0.556571 -10.020809 -0.817048 -5.470578 26.778829 -3.848250 -8.288880 7.173640 -1.131893 -10.245437 3.651253 -5.704768 -12.362029 -0.448810 106.411704 -36.586582 -48.718500 -4.379240 2.795220 0.154470 0.793350 -0.822560 0.349720 -2.198504 14.322503 5.958078 -0.444384 18.081262 -7.662280 -90.339900 25.373577 -28.308447 1.566747 -1.994670 -0.596930 0.495570 0.341850 -0.190390 
-0.340210 16.691850 -1.846740 -4.871952 21.236033 -3.318805 -15.163300 12.350603 3.148130 15.757925 -0.767484 -28.565651 -5.458913 10.804271 32.609193 -0.541751 7.532300 2.195564 0.084320 -0.507990 -0.135160 18.303947 -11.483397 2.360224 -13.507120 3.961183 -16.139315 10.277140 -10.318902 33.300586 -0.174465 -6.566384 2.421848 0.069590 1.067720 0.224300 -4.075618 0.812283 -7.349788 6.760364 6.400929 8.722436 -2.230907 7.889418 11.663707 1.954363 -0.488966 -9.952501 -0.966027 -5.482023 27.925668 -3.019480 -8.663410 6.213040 -1.346503 -11.107781 3.415510 -5.277761 -13.293229 -0.917721 95.457964 -41.436703 -44.493809 -4.267973 2.625953 0.183280 0.742600 -0.788880 0.341280 -2.049597 15.242884 5.919564 -1.698398 18.147293 -7.590664 -77.987588 29.836122 -25.387290 1.557269 -1.866210 -0.582560 0.494090 0.327300 -0.192350 
-0.315040 16.681310 -1.859500 -4.887226 21.217783 -3.466848 -15.200273 12.401066 3.195828 15.404105 -0.860345 -29.092860 -4.975963 10.838071 33.611744 -0.498653 7.595133 2.153983 0.114560 -0.482440 -0.077230 18.267486 -11.459328 2.332675 -13.225940 4.028910 -16.203068 9.493249 -10.088156 34.021126 -0.195391 -6.529870 2.422056 0.061220 1.003690 0.227680 -3.964592 0.653600 -7.376497 5.940357 6.493828 9.103271 -2.108407 7.911070 11.379509 2.041191 -0.365427 -9.933405 -0.989795 -5.481317 28.897497 -3.351590 -8.264660 5.776190 -1.106016 -11.697642 3.101406 -4.284230 -13.328093 -1.577002 83.130000 -45.208910 -37.948973 -4.157470 2.521151 0.201360 0.704780 -0.746120 0.325930 -2.463638 15.788654 5.983711 -2.302736 18.062289 -7.306413 -68.011160 32.464979 -22.156624 1.556648 -1.805739 -0.551240 0.462370 0.295410 -0.206610 
-0.276720 16.675130 -1.861720 -5.059415 20.782132 -3.444323 -15.217499 12.435391 3.223173 15.218058 -0.863529 -29.512515 -4.481213 10.925062 34.630492 -0.433203 7.686960 2.114350 0.120270 -0.459050 -0.097080 18.256588 -11.436658 2.305828 -12.980094 4.086833 -16.442198 8.750692 -9.863587 34.660351 -0.198197 -6.514823 2.436280 0.052960 0.994300 0.231610 -3.908095 0.538413 -7.372870 5.431535 6.577912 8.948907 -1.610637 7.788078 11.089995 1.750527 -0.583946 -9.814883 -1.519731 -5.109954 29.438300 -2.714550 -8.369020 5.873890 -0.643708 -11.642195 2.994669 -4.340080 -12.913877 -1.964029 73.887891 -46.789497 -32.604321 -4.100935 2.544701 0.185150 0.694820 -0.734840 0.335400 -2.339803 15.852705 5.810354 -2.774004 18.229200 -6.877554 -62.421884 34.389741 -20.382227 1.542507 -1.766235 -0.517920 0.442220 0.283500 -0.184480 
-0.234480 16.670150 -1.854860 -5.108045 19.930453 -3.669832 -15.213732 12.508860 3.209095 15.044148 -0.788254 -29.193640 -4.293227 11.045010 35.226315 -0.384395 7.726142 2.094332 0.145020 -0.425640 -0.069210 18.250910 -11.474015 2.273789 -12.713402 4.073995 -16.454486 7.628354 -9.437350 35.160818 -0.213601 -6.424828 2.457972 0.052120 0.948170 0.218900 -3.891974 0.476052 -7.357708 5.240195 6.563920 8.803326 -1.617908 7.660999 10.884792 1.651890 -0.747673 -9.759442 -2.008877 -4.433367 30.566629 -2.276740 -7.865290 5.633940 -0.424145 -11.441720 3.036160 -3.603606 -11.547038 -2.256512 67.539076 -47.412590 -28.773704 -4.032616 2.587964 0.207580 0.651090 -0.694190 0.342230 -2.367520 15.699018 5.617930 -3.090956 18.612456 -6.584857 -60.288028 35.141934 -19.630388 1.560559 -1.740940 -0.500880 0.429560 0.248400 -0.184400 
-0.184010 16.658510 -1.842460 -5.424659 19.233804 -3.774223 -15.193070 12.534409 3.190320 14.965224 -0.779060 -29.141834 -3.826747 11.071171 36.014461 -0.376353 7.839100 2.075110 0.157310 -0.422400 -0.053520 18.273979 -11.495359 2.242723 -12.628555 3.983236 -16.342474 7.160712 -9.248544 35.091908 -0.206203 -6.383288 2.480338 0.063470 0.965020 0.214070 -3.944085 0.469368 -7.311887 5.713881 6.307089 8.248670 -1.655583 7.307673 10.664521 1.537050 -1.215646 -9.373287 -2.818338 -3.727639 30.573909 -2.564850 -7.237690 5.879270 -0.436423 -10.258952 2.943847 -3.401348 -10.139354 -2.032676 66.453340 -47.132301 -27.699830 -4.053468 2.612590 0.211100 0.661810 -0.703730 0.357590 -2.173036 14.701890 5.083240 -3.904173 18.997227 -6.175528 -60.731543 35.853422 -19.897422 1.539050 -1.733464 -0.518830 0.445710 0.235660 -0.190930 
-0.146990 16.651290 -1.820840 -5.229079 18.510127 -4.119476 -15.193894 12.637508 3.155309 14.604426 -0.784714 -28.641487 -3.362043 11.123146 36.967281 -0.383522 8.004041 2.021869 0.102720 -0.488630 -0.087580 18.256839 -11.525113 2.200925 -13.103937 3.786216 -15.714844 6.957604 -9.171598 34.622326 -0.171766 -6.330906 2.501631 0.043180 1.005420 0.204960 -3.908331 0.340239 -7.272577 5.409956 6.054260 8.213208 -1.636853 7.046632 10.428946 1.426564 -1.762237 -9.214500 -3.779413 -2.739864 30.796217 -2.160520 -6.812260 5.858580 -0.719520 -9.332720 3.074991 -2.818046 -7.619294 -2.051403 69.434433 -45.688153 -28.395947 -4.124533 2.587071 0.233320 0.676780 -0.724600 0.335890 -1.670543 14.150403 4.722522 -5.795400 18.888208 -6.257819 -61.910151 35.555274 -19.924492 1.535716 -1.681360 -0.562660 0.481670 0.287910 -0.200260 
-0.108940 16.647070 -1.792630 -5.091472 17.530573 -4.277273 -15.180447 12.695546 3.106233 14.372752 -0.698284 -28.127765 -3.065561 11.258394 37.744487 -0.414396 8.198738 1.963293 0.064040 -0.568020 -0.096820 18.263760 -11.553136 2.173369 -13.456112 3.756038 -15.448584 6.693091 -9.087141 34.442747 -0.139923 -6.319949 2.505672 0.027070 1.047370 0.209080 -3.917625 0.308489 -7.211185 5.377235 5.960732 7.669282 -1.701540 6.897625 10.288994 1.354025 -2.141856 -9.053828 -4.386894 -1.770532 30.784708 -2.197380 -6.071580 6.301960 -0.576900 -8.044315 3.137851 -2.401681 -5.035515 -1.913386 73.794981 -43.612745 -29.471407 -4.218366 2.601011 0.264770 0.703890 -0.759380 0.318200 -1.667932 13.069105 4.415732 -6.585646 18.700906 -6.183111 -64.210666 34.378852 -20.165752 1.524958 -1.683237 -0.618240 0.502280 0.334380 -0.230150 
-0.068230 16.639880 -1.754940 -4.768982 16.912728 -4.176179 -15.185865 12.741180 3.053884 13.758122 -0.775285 -27.757485 -2.726226 11.278149 38.371838 -0.417699 8.341703 1.953329 -0.009590 -0.666910 -0.119690 18.256955 -11.562385 2.139361 -14.124650 3.647365 -15.195131 6.785942 -9.160102 34.101161 -0.090695 -6.345154 2.501652 -0.001270 1.123550 0.202350 -3.879966 0.246433 -7.110903 4.821868 6.045926 6.706139 -1.334466 6.805033 10.140345 1.268267 -2.179849 -8.873918 -4.359777 -1.240852 30.194340 -2.837050 -5.195220 7.684520 -0.194283 -6.820370 3.028277 -1.406393 -3.270999 -1.712653 77.470137 -40.739525 -29.448850 -4.355118 2.628888 0.247240 0.761000 -0.817260 0.298720 -1.843429 11.770667 4.259254 -7.641221 17.410212 -6.018030 -66.965771 33.344099 -20.543092 1.533724 -1.696040 -0.677300 0.535680 0.381530 -0.241430 
-0.030640 16.646950 -1.718580 -4.590198 16.224218 -4.755433 -15.175646 12.870739 2.992582 13.474366 -0.655986 -26.736282 -2.540596 11.279070 38.650692 -0.432159 8.376872 1.927994 -0.037000 -0.720710 -0.115270 18.238804 -11.624758 2.109019 -14.444885 3.491748 -14.198771 6.457222 -9.022444 33.643136 -0.076412 -6.277087 2.529304 -0.030770 1.100440 0.185250 -3.866150 0.139497 -7.087727 5.037556 6.010072 6.684479 -1.476149 6.824143 10.078754 1.281472 -2.603845 -9.106584 -5.309520 -0.661057 31.164609 -2.614660 -4.894650 7.762740 -0.026406 -6.239195 3.139277 -0.490525 -0.790409 -1.985654 81.721972 -36.764645 -28.937618 -4.400180 2.685522 0.298980 0.735500 -0.812420 0.269210 -2.033558 11.443441 4.564718 -9.115620 15.025292 -6.375772 -70.611776 31.356304 -20.672006 1.572102 -1.699501 -0.704520 0.535490 0.407320 -0.272180 
0.009670 16.651670 -1.679030 -4.658827 15.760270 -5.093555 -15.158387 12.931982 2.946300 13.542960 -0.543354 -25.921923 -2.663946 11.373877 38.753923 -0.398904 8.412844 1.922723 -0.047350 -0.727290 -0.122200 18.243117 -11.658366 2.088598 -14.611410 3.326789 -13.383633 6.493628 -9.007838 33.076728 -0.081100 -6.241482 2.552967 -0.047000 1.095580 0.187250 -3.893776 0.097013 -7.059561 5.704446 6.020213 6.356247 -1.609283 6.871014 9.944068 1.309419 -2.935883 -9.136027 -6.081283 -0.830103 31.530108 -2.984390 -5.026460 7.952690 -0.008440 -5.635379 3.001854 0.872548 0.795045 -2.170735 85.366487 -32.452060 -27.382191 -4.453142 2.759416 0.304680 0.729980 -0.798520 0.271560 -2.154365 10.956399 4.792758 -11.375782 11.741296 -6.568622 -74.259592 28.809227 -20.181292 1.632563 -1.742922 -0.696810 0.535440 0.405860 -0.265630 
0.051380 16.660750 -1.636420 -4.571303 14.952604 -5.368060 -15.134608 13.009325 2.901216 13.499447 -0.416499 -24.918035 -2.958328 11.511547 38.687984 -0.373788 8.423980 1.906965 -0.041980 -0.726150 -0.107660 18.247313 -11.701118 2.066168 -14.934578 3.157460 -12.568060 6.348244 -8.817487 32.146614 -0.072893 -6.128065 2.581995 -0.057500 1.059520 0.189240 -3.924114 0.036980 -7.034022 6.411053 6.136098 6.194932 -1.912316 7.065484 9.522706 1.269297 -3.531325 -9.102423 -7.339467 -0.775339 31.795374 -3.013580 -5.176390 7.771000 -0.639626 -5.473437 2.778441 3.557435 2.686610 -2.373564 88.358464 -27.606085 -24.515857 -4.485810 2.841688 0.320230 0.701450 -0.776150 0.259230 -1.535183 11.121390 4.992434 -14.613225 8.034915 -6.780560 -77.934039 25.267429 -18.648677 1.718641 -1.791803 -0.681800 0.514740 0.401900 -0.270610 
0.086660 16.677650 -1.586740 -4.523513 14.098918 -5.806631 -15.097273 13.136556 2.828141 13.458666 -0.190465 -23.432818 -3.169483 11.473487 38.121506 -0.350797 8.323913 1.948774 -0.037620 -0.721480 -0.110280 18.247938 -11.799642 2.055137 -14.969618 2.989840 -11.562040 5.683636 -8.465233 31.452761 -0.083823 -6.001749 2.641041 -0.080530 1.043610 0.194350 -3.975529 0.005834 -7.029333 7.209128 6.106198 6.368790 -2.438990 7.154701 8.758393 1.275104 -4.075595 -9.330873 -8.469676 -0.288042 32.281472 -2.454410 -5.168370 7.543540 -1.242888 -5.747418 2.751267 6.035473 5.746454 -2.757849 91.808025 -22.641870 -21.296089 -4.499777 2.897687 0.353660 0.672920 -0.741300 0.269180 -1.011015 11.759094 5.365481 -16.888282 4.752828 -7.048939 -82.280926 21.014763 -16.629468 1.802480 -1.820367 -0.665640 0.512970 0.393020 -0.262620 
0.115740 16.690910 -1.540160 -4.818526 13.647021 -6.347731 -15.077025 13.245066 2.801348 13.833967 0.019489 -22.394263 -3.204788 11.531971 38.165063 -0.291198 8.315174 1.926133 -0.022840 -0.704310 -0.103840 18.239250 -11.861976 2.051666 -14.479749 2.741903 -10.296432 5.059263 -8.070865 30.495674 -0.107697 -5.846773 2.681237 -0.107240 0.988690 0.220440 -3.994681 -0.058976 -7.071908 7.863567 6.032327 6.699004 -2.517265 7.104897 7.833701 1.317301 -4.288693 -9.684250 -9.060776 0.477136 33.187264 -1.582520 -4.803940 7.532280 -1.562268 -6.171465 2.816492 8.018737 8.752443 -3.296167 94.972194 -16.623932 -16.499930 -4.498315 3.016581 0.381010 0.624630 -0.686310 0.265520 -0.788628 12.316100 5.772466 -18.261721 1.368467 -7.255010 -86.833654 16.041995 -13.626751 1.911454 -1.875639 -0.617310 0.458990 0.379480 -0.254310 
